<?xml version="1.0" encoding="utf-8"?>
<!-- Generator: Adobe Illustrator 26.3.1, SVG Export Plug-In . SVG Version: 6.00 Build 0)  -->
<svg version="1.1" id="Layer_1" xmlns="http://www.w3.org/2000/svg" xmlns:xlink="http://www.w3.org/1999/xlink" x="0px" y="0px"
	 viewBox="0 0 792 432" style="enable-background:new 0 0 792 432;" xml:space="preserve">
<style type="text/css">
	.st0{fill:#415574;}
	.st1{fill:#0D1324;}
	.st2{fill:#010101;}
	.st3{fill:#D68146;}
	.st4{fill:#FFFFFF;}
	.st5{fill:#EAA34F;}
	.st6{fill:#D61E3B;}
	.st7{fill:#E4AD84;}
	.st8{fill:#E38075;}
	.st9{fill:#56545F;}
	.st10{fill:#F2CC9F;}
	.st11{fill:#80859C;}
	.st12{fill:#EAAE6A;}
</style>
<g>
	<g>
		<g>
			<path d="M721.1,33.5c0,4.4-1.5,8.1-4.5,11.2c-3,3.1-6.7,4.6-10.9,4.6s-7.9-1.5-11-4.6c-3-3.1-4.5-6.8-4.5-11.2
				c0-2.4,0.5-4.7,1.5-6.7c1-2.1,2.4-3.9,4.1-5.4c2.9-2.4,6.1-3.6,9.7-3.6c2.4,0,4.5,0.5,6.5,1.4c2.7,1.2,5,3.1,6.6,5.8
				C720.2,27.6,721.1,30.5,721.1,33.5z M705.5,20.1c-3.5,0-6.6,1.3-9.1,4c-2.5,2.7-3.8,5.8-3.8,9.5c0,3.7,1.3,6.9,3.8,9.6
				c2.5,2.6,5.6,4,9.2,4c3.6,0,6.6-1.3,9.2-3.9c2.5-2.6,3.8-5.8,3.8-9.6c0-2-0.5-4.1-1.5-6.2c-1-2-2.3-3.6-3.9-4.8
				C710.9,20.9,708.4,20.1,705.5,20.1z M707.1,35.1l5.8,7.6h-4.2l-5.3-7.2v7.2h-3.4V24.5h3.6c2.5,0,4.3,0.5,5.5,1.4
				c1.3,1,1.9,2.4,1.9,4.1c0,1.1-0.3,2.2-1,3.2c-0.7,0.9-1.6,1.6-2.6,1.9L707.1,35.1z M703.5,32.6h0.6c2.4,0,3.7-0.9,3.7-2.6
				c0-1.6-1.2-2.4-3.6-2.4h-0.7V32.6z"/>
		</g>
	</g>
	<path d="M570.5,34.1c-3.6-5.5-7.9-9.9-12.6-13c-4.8-3.2-10.7-4.8-17.6-4.8c-6.9,0-12.9,1.6-17.8,4.7c-5,3.2-9.3,7.5-12.9,12.9
		L392.9,202.7c-2-3.3-4.2-6.5-6.8-9.4c-10.6-12.1-24.1-20.4-40.7-25c6.6-1.7,13-4.4,19.1-8c6.1-3.6,11.5-8,16.1-13.4
		c4.6-5.3,8.3-11.7,10.9-19.2c2.6-7.5,4-16.2,4-26.3c0-13.2-2.8-24.9-8.4-35.1c-5.6-10.2-13.6-18.7-23.8-25.4
		C353,34.2,340.7,29,326.3,25.6c-14.4-3.4-30.3-5.3-47.8-5.3H15.4v313.9h358.8L537.8,93.5l80.3,116.9H507.5L477.8,255h170.6l54,79.3
		h75.9L570.5,34.1z M260.1,279.7h-182V74.9h176.5c11.6,0,22.1,0.6,31.5,1.5c9.4,0.9,17.5,2.8,24.3,5.5c6.8,2.7,12,6.7,15.6,11.7
		c3.6,5,5.5,11.7,5.5,20.1c0,13.8-4.3,23.2-12.9,29c-8.6,5.7-21.8,8.3-39.7,8.3H122.8v46.3h160.7c17.8,0,31.4,3.8,40.7,10.8
		c9.2,7,13.9,17.1,13.9,30.1c0,7.8-1.9,14.3-5.7,19.5c-3.8,5.2-9.2,9.4-16.1,12.7c-6.9,3.3-15.2,5.8-24.8,7.2
		C281.8,278.9,271.4,279.7,260.1,279.7z"/>
	<g>
		<path d="M71.8,375.8c-0.1-1.9-0.3-3.3-0.8-4.3c-0.5-1-1.4-1.7-2.7-2.1c-1.3-0.4-3.2-0.7-5.6-0.7c-2.4,0-5.6,0-9.5,0
			c-4.5,0-8.1,0-10.8,0.1c-2.7,0.1-4.9,0.5-6.4,1.3c-1.6,0.8-2.6,2.1-3.1,4c-0.5,1.9-0.8,4.5-0.8,8.1c0,4.5,0.1,8,0.4,10.4
			c0.3,2.5,1.1,4.3,2.4,5.5c1.3,1.2,3.4,1.9,6.2,2.1c2.8,0.2,6.7,0.3,11.7,0.3c3.8,0,6.9,0,9.4,0c2.5,0,4.5-0.2,6-0.7
			c1.5-0.5,2.5-1.3,3.1-2.5c0.6-1.2,0.9-3,0.9-5.3h17.9c0,0.5,0,0.9,0,1.3c0,0.4,0,0.8,0,1.3c0,3.1-0.2,5.8-0.6,8.2s-1.1,4.4-2,6
			c-1,1.6-2.2,2.9-3.8,3.9c-1.6,1-3.6,1.6-6,1.8c-3.9,0.4-7.5,0.7-11,1c-3.4,0.2-6.6,0.3-9.4,0.3c-9.4,0-18.1-0.3-26.2-0.8
			c-3.2-0.2-5.8-0.9-8.1-2.1c-2.2-1.2-4-3-5.4-5.3c-1.4-2.3-2.4-5.3-3-8.8c-0.6-3.5-0.9-7.7-0.9-12.6c0-3.1,0-5.9,0.1-8.5
			c0.1-2.6,0.3-4.9,0.7-7.1c0.4-2.2,1-4.1,1.8-5.9c0.8-1.8,2-3.4,3.4-4.9c1.5-1.5,3.2-2.6,5.2-3.4c2-0.8,4.3-1.4,7-1.7
			c2.7-0.4,5.7-0.6,9.1-0.7c3.4-0.1,7.2-0.1,11.5-0.1c7.3,0,13.4,0.2,18.1,0.5c4.7,0.3,8.5,1.2,11.2,2.5c2.7,1.4,4.7,3.6,5.7,6.6
			c1.1,3,1.6,7.1,1.7,12.5H71.8z"/>
		<path d="M97.3,390.5c0-5.8,0.1-10.7,0.2-14.9c0.1-4.2,0.7-7.7,1.7-10.5c1-2.8,2.5-5.1,4.7-6.8c2.1-1.7,5.1-2.9,9.1-3.6
			c2.7-0.5,7.6-0.8,14.6-0.9s16.3-0.1,27.8-0.1c3.8,0,7,0.3,9.8,1c2.7,0.7,5.1,1.7,6.9,3.1c1.9,1.4,3.4,3.3,4.4,5.6
			c1.1,2.3,1.8,5.1,2.2,8.4c0.2,1.7,0.4,3.9,0.4,6.6c0,2.7,0,5.9,0,9.6c0,4.4-0.3,8.2-0.8,11.2c-0.5,3.1-1.5,5.6-2.8,7.7
			c-1.3,2.1-3.1,3.7-5.2,4.8c-2.2,1.2-4.9,2-8.2,2.6c-3.3,0.6-7.1,0.9-11.6,1.1c-4.4,0.1-9.6,0.2-15.5,0.2c-6.7,0-12.4-0.2-17.2-0.6
			c-4.8-0.4-8.7-1.4-11.7-3.1c-3-1.7-5.3-4.2-6.7-7.6C98.1,401.1,97.3,396.5,97.3,390.5z M115.9,382.2c0,3.1,0,5.7,0.1,7.8
			c0.1,2.1,0.3,3.9,0.7,5.3s1,2.5,1.8,3.2c0.8,0.7,1.9,1.3,3.4,1.6c1.5,0.4,3.3,0.6,5.5,0.6c2.2,0.1,4.8,0.1,7.9,0.1
			c6.2,0,11-0.1,14.5-0.2c3.5-0.1,6-0.7,7.7-1.8c1.6-1,2.6-2.7,3-5.1c0.4-2.3,0.5-5.7,0.5-10c0-3.5-0.2-6.3-0.5-8.3
			c-0.3-2-1-3.5-2.1-4.5s-2.7-1.6-4.7-1.9c-2.1-0.2-4.9-0.4-8.3-0.4c-6.3,0-11.3,0-15.2,0c-3.9,0-6.9,0.4-8.9,1.1
			c-2.1,0.8-3.5,2.1-4.2,4C116.2,375.7,115.9,378.5,115.9,382.2z"/>
		<path d="M289.1,354.4v60.7h-17.2v-46.2l-26.3,46.2H231l-26-46.2v46.2h-17.2v-60.7h28.9l21.9,40.2l21.7-40.2H289.1z"/>
		<path d="M401.1,354.4v60.7H384v-46.2l-26.3,46.2h-14.6l-26-46.2v46.2h-17.2v-60.7h28.9l21.9,40.2l21.7-40.2H401.1z"/>
		<path d="M470.5,354.4h18.4v38.2c0,5.9-1,10.5-3,13.9c-2,3.4-5.2,5.9-9.7,7.4c-2.6,0.9-5.7,1.4-9.3,1.5c-3.6,0.2-7.8,0.3-12.5,0.3
			c-5,0-9.4,0-13.5,0c-4,0-7.6-0.2-10.7-0.6c-3.1-0.4-5.8-1.1-8.1-2c-2.3-0.9-4.2-2.3-5.7-4.1c-1.5-1.8-2.6-4.1-3.3-6.9
			c-0.7-2.8-1.1-6.2-1.1-10.4v-37.3h18.3v31.8c0,2.5,0.1,4.7,0.2,6.3c0.1,1.7,0.5,3,0.9,4.1c0.5,1.1,1.2,1.9,2.1,2.5
			c0.9,0.5,2.2,0.9,3.7,1.2c1.6,0.2,3.5,0.4,5.7,0.4c2.3,0,5,0,8.2,0c2.4,0,4.5,0,6.4,0c1.8,0,3.5-0.1,4.9-0.2
			c1.4-0.1,2.6-0.4,3.6-0.8c1-0.4,1.8-1,2.5-1.9c1-1.2,1.6-2.7,1.7-4.5c0.1-1.8,0.2-4.1,0.2-6.8V354.4z"/>
		<path d="M581.8,354.4v60.7h-28.9L517,369.5v45.6h-17.2v-60.7h28.9l35.9,45.5v-45.5H581.8z"/>
		<path d="M611,354.4v60.7h-18.3v-60.7H611z"/>
		<path d="M662.9,369.6v45.5h-18.3v-45.5h-26.8v-15.2h71.4v15.2H662.9z"/>
		<path d="M735.2,379.4l20.1-25h22.8l-33.5,39.4v21.3H726v-21.3l-33.9-39.4H715L735.2,379.4z"/>
	</g>
</g>
</svg>
